<svg width="64" height="65" viewBox="0 0 64 65" fill="none" xmlns="http://www.w3.org/2000/svg">
<path d="M56.0256 49.0766C59.8405 45.6766 62.0006 41.1447 62.0006 36.4418C62.0006 31.4438 59.6609 26.7696 55.4123 23.2793C51.2773 19.8836 45.804 18.0132 40 18.0132C34.196 18.0132 28.7228 19.8836 24.5884 23.2796C20.3398 26.7696 18 31.4438 18 36.4418C18 41.4398 20.3398 46.1141 24.5884 49.6043C28.7228 53.0003 34.196 54.8706 40 54.8706C40.7734 54.8706 41.5515 54.8364 42.3231 54.7686L43.6414 55.9112C48.1828 59.8465 53.9907 62.013 60 62.0132H62V57.7561L61.4142 57.1704C59.1035 54.8529 57.2724 52.1025 56.0256 49.0766V49.0766ZM46.2611 52.8882L43.616 50.5956L42.734 50.7037C41.8269 50.8146 40.9139 50.8703 40 50.8703C30.075 50.8703 22 44.3977 22 36.4418C22 28.4859 30.075 22.0132 40 22.0132C49.925 22.0132 58 28.4858 58 36.4418C58 40.4056 56.0225 44.1061 52.4318 46.8616L51.2799 47.7454L51.8114 49.2498C52.9006 52.3223 54.5016 55.1884 56.5466 57.7269C52.7382 57.0912 49.179 55.4168 46.2611 52.8882V52.8882Z" fill="white"/>
<path d="M7.52313 39.6977C9.39528 37.3278 10.8652 34.6664 11.8741 31.8198L12.4016 30.3229L11.2507 29.4397C7.86475 26.8414 6 23.3542 6 19.6203C6 12.1173 13.6261 6.01318 23 6.01318C29.896 6.01318 35.8459 9.31693 38.5096 14.0507C39.0042 14.0267 39.501 14.0132 40 14.0132C41.0022 14.0132 41.9953 14.0618 42.9793 14.1591C41.9499 11.4922 40.1621 9.05768 37.7043 7.03893C33.759 3.79806 28.5375 2.01318 23 2.01318C17.4625 2.01318 12.241 3.79806 8.2955 7.03893C4.23575 10.3738 2 14.8419 2 19.6203C2 24.0953 4.044 28.4072 7.65625 31.6507C6.47742 34.4875 4.75494 37.0664 2.58588 39.2418L2 39.8276V44.0132H4C7.69839 44.0127 11.3459 43.1515 14.6539 41.4976C14.2911 40.1227 14.0786 38.7126 14.02 37.2919C12.0122 38.4687 9.81308 39.283 7.52313 39.6977V39.6977Z" fill="white"/>
</svg>
