<svg width="64" height="65" viewBox="0 0 64 65" fill="none" xmlns="http://www.w3.org/2000/svg">
<path d="M56 35.36C48.3746 38.4433 40.2251 40.0234 32 40.0133C23.512 40.0133 15.4133 38.36 8 35.36M32 32.0133H32.0267M42.6667 16.0133V10.68C42.6667 9.26553 42.1048 7.90897 41.1046 6.90878C40.1044 5.90858 38.7478 5.34668 37.3333 5.34668H26.6667C25.2522 5.34668 23.8956 5.90858 22.8954 6.90878C21.8952 7.90897 21.3333 9.26553 21.3333 10.68V16.0133H42.6667ZM13.3333 53.3467H50.6667C52.0812 53.3467 53.4377 52.7848 54.4379 51.7846C55.4381 50.7844 56 49.4278 56 48.0133V21.3467C56 19.9322 55.4381 18.5756 54.4379 17.5754C53.4377 16.5752 52.0812 16.0133 50.6667 16.0133H13.3333C11.9188 16.0133 10.5623 16.5752 9.5621 17.5754C8.5619 18.5756 8 19.9322 8 21.3467V48.0133C8 49.4278 8.5619 50.7844 9.5621 51.7846C10.5623 52.7848 11.9188 53.3467 13.3333 53.3467Z" stroke="white" stroke-width="4" stroke-linecap="round" stroke-linejoin="round"/>
</svg>
